<svg xmlns="http://www.w3.org/2000/svg" width="170" height="149"><path fill-rule="evenodd" fill="#F5EEE3" d="M165.983 23.619L139.431 2.334C137.545.821 135.207 0 132.795 0h-95.59c-2.411 0-4.75.821-6.635 2.334L4.017 23.619C.542 26.404-.83 31.066.576 35.296l10.621 31.929c1.047 3.143 3.498 5.623 6.63 6.698 1.123.385 2.287.577 3.447.577 1.848 0 3.682-.483 5.31-1.424v65.281c0 5.878 4.756 10.643 10.621 10.643h95.59c5.865 0 10.621-4.765 10.621-10.643V73.076c1.628.941 3.462 1.424 5.311 1.424 1.159 0 2.323-.192 3.446-.577 3.132-1.075 5.583-3.555 6.63-6.698l10.621-31.929c1.406-4.23.034-8.892-3.441-11.677zm-61.045-12.976C102.005 16.822 94.218 21.286 85 21.286c-9.218 0-17.005-4.464-19.938-10.643h39.876zm43.789 53.214l-15.932-10.642v85.142h-95.59V53.215L21.274 63.857 10.652 31.929l26.553-21.286h22.181C62.347 19.805 72.642 26.607 85 26.607s22.653-6.802 25.614-15.964h22.181l26.553 21.286-10.621 31.928z"/></svg>