<svg xmlns="http://www.w3.org/2000/svg" width="170" height="149" viewBox="0 0 170 149">
  <metadata><?xpacket begin="﻿" id="W5M0MpCehiHzreSzNTczkc9d"?>
<x:xmpmeta xmlns:x="adobe:ns:meta/" x:xmptk="Adobe XMP Core 5.6-c142 79.160924, 2017/07/13-01:06:39        ">
   <rdf:RDF xmlns:rdf="http://www.w3.org/1999/02/22-rdf-syntax-ns#">
      <rdf:Description rdf:about=""/>
   </rdf:RDF>
</x:xmpmeta>
                                                                                                    
                                                                                                    
                                                                                                    
                                                                                                    
                                                                                                    
                                                                                                    
                                                                                                    
                                                                                                    
                                                                                                    
                                                                                                    
                                                                                                    
                                                                                                    
                                                                                                    
                                                                                                    
                                                                                                    
                                                                                                    
                                                                                                    
                                                                                                    
                                                                                                    
                                                                                                    
                           
<?xpacket end="w"?></metadata>
<defs>
    <style>
      .cls-1 {
        fill: #f5eee3;
        fill-rule: evenodd;
      }
    </style>
  </defs>
  <path id="t-shirt" class="cls-1" d="M1719.98,2638.62l-26.55-21.29a10.587,10.587,0,0,0-6.63-2.33h-95.59a10.594,10.594,0,0,0-6.64,2.33l-26.55,21.29a10.645,10.645,0,0,0-3.44,11.68l10.62,31.92a10.574,10.574,0,0,0,6.63,6.7,10.442,10.442,0,0,0,3.44.58,10.59,10.59,0,0,0,5.31-1.42v65.28a10.64,10.64,0,0,0,10.63,10.64h95.59a10.637,10.637,0,0,0,10.62-10.64v-65.28a10.59,10.59,0,0,0,5.31,1.42,10.442,10.442,0,0,0,3.44-.58,10.574,10.574,0,0,0,6.63-6.7l10.62-31.92A10.645,10.645,0,0,0,1719.98,2638.62Zm-61.04-12.98c-2.93,6.18-10.72,10.65-19.94,10.65s-17-4.47-19.94-10.65h39.88Zm43.79,53.22-15.93-10.65v85.15h-95.59v-85.15l-15.94,10.65-10.62-31.93,26.56-21.29h22.18c2.96,9.16,13.25,15.97,25.61,15.97s22.65-6.81,25.61-15.97h22.19l26.55,21.29Z" transform="translate(-1554 -2615)"/>
</svg>
