<svg 
 xmlns="http://www.w3.org/2000/svg"
 xmlns:xlink="http://www.w3.org/1999/xlink"
 width="302px" height="302px">
<path fill-rule="evenodd"  stroke-width="8px" stroke="rgb(245, 238, 227)" fill-opacity="0" fill="rgb(212, 82, 68)"
 d="M151.000,9.009 C229.420,9.009 292.991,72.580 292.991,151.000 C292.991,229.420 229.420,292.991 151.000,292.991 C72.581,292.991 9.009,229.420 9.009,151.000 C9.009,72.580 72.581,9.009 151.000,9.009 Z"/>
<path fill-rule="evenodd"  fill="rgb(245, 238, 227)"
 d="M230.983,99.619 L204.431,78.334 C202.545,76.821 200.207,76.000 197.795,76.000 L102.205,76.000 C99.794,76.000 97.455,76.821 95.570,78.334 L69.017,99.619 C65.542,102.404 64.170,107.066 65.576,111.296 L76.197,143.225 C77.244,146.368 79.695,148.848 82.827,149.923 C83.950,150.308 85.114,150.500 86.274,150.500 C88.122,150.500 89.956,150.017 91.584,149.076 L91.584,214.357 C91.584,220.235 96.340,225.000 102.205,225.000 L197.795,225.000 C203.660,225.000 208.416,220.235 208.416,214.357 L208.416,149.076 C210.044,150.017 211.878,150.500 213.727,150.500 C214.886,150.500 216.050,150.308 217.173,149.923 C220.305,148.848 222.756,146.368 223.803,143.225 L234.424,111.296 C235.830,107.066 234.458,102.404 230.983,99.619 ZM169.938,86.643 C167.005,92.822 159.218,97.286 150.000,97.286 C140.782,97.286 132.995,92.822 130.062,86.643 L169.938,86.643 ZM213.727,139.857 L197.795,129.215 L197.795,214.357 L102.205,214.357 L102.205,129.215 L86.274,139.857 L75.652,107.929 L102.205,86.643 L124.386,86.643 C127.347,95.805 137.642,102.607 150.000,102.607 C162.358,102.607 172.653,95.805 175.614,86.643 L197.795,86.643 L224.348,107.929 L213.727,139.857 Z"/>
</svg>