<svg xmlns="http://www.w3.org/2000/svg" width="170" height="169.94" viewBox="0 0 170 169.94">
  <metadata><?xpacket begin="﻿" id="W5M0MpCehiHzreSzNTczkc9d"?>
<x:xmpmeta xmlns:x="adobe:ns:meta/" x:xmptk="Adobe XMP Core 5.6-c142 79.160924, 2017/07/13-01:06:39        ">
   <rdf:RDF xmlns:rdf="http://www.w3.org/1999/02/22-rdf-syntax-ns#">
      <rdf:Description rdf:about=""/>
   </rdf:RDF>
</x:xmpmeta>
                                                                                                    
                                                                                                    
                                                                                                    
                                                                                                    
                                                                                                    
                                                                                                    
                                                                                                    
                                                                                                    
                                                                                                    
                                                                                                    
                                                                                                    
                                                                                                    
                                                                                                    
                                                                                                    
                                                                                                    
                                                                                                    
                                                                                                    
                                                                                                    
                                                                                                    
                                                                                                    
                           
<?xpacket end="w"?></metadata>
<defs>
    <style>
      .cls-1 {
        fill: #f5eee3;
        fill-rule: evenodd;
      }
    </style>
  </defs>
  <path id="food" class="cls-1" d="M2190.72,2715.49h-14.3c-0.23-1.28-.53-2.52-0.85-3.76l25.49-12.76a5.315,5.315,0,1,0-4.75-9.51l-24.32,12.16a58.338,58.338,0,0,0-110.41,13.87h-14.3a13.3,13.3,0,0,0-13.28,13.29,10.639,10.639,0,0,0,2.68,7.07l18.57,20.9v3.94a13.3,13.3,0,0,0,13.28,13.29h100.94a13.3,13.3,0,0,0,13.28-13.29v-3.94l18.56-20.9a10.648,10.648,0,0,0,2.69-7.07A13.3,13.3,0,0,0,2190.72,2715.49Zm-19.67,0h-2.98l2.65-1.33C2170.82,2714.6,2170.96,2715.03,2171.05,2715.49ZM2119,2672.94a53.172,53.172,0,0,1,48.25,31.06l-4.73,2.37a47.756,47.756,0,0,0-90.11,9.12h-5.46A53.213,53.213,0,0,1,2119,2672.94Zm24.31,42.55a26.494,26.494,0,0,0-48.62,0h-5.71a31.825,31.825,0,0,1,59.28-1.99l-3.95,1.99h-1Zm-24.31-5.32a15.784,15.784,0,0,0-11.79,5.32h-6.51a21.049,21.049,0,0,1,36.59,0h-6.5A15.8,15.8,0,0,0,2119,2710.17Zm0-21.27a37.237,37.237,0,0,0-35.62,26.59h-5.48a42.423,42.423,0,0,1,79.86-6.73l-4.75,2.37A37.236,37.236,0,0,0,2119,2688.9Zm53.12,63.81v7.98a2.65,2.65,0,0,1-2.65,2.66H2068.53a2.659,2.659,0,0,1-2.66-2.66v-7.98l-21.25-23.93a2.659,2.659,0,0,1,2.66-2.66h143.44a2.65,2.65,0,0,1,2.65,2.66Zm-95.75-86.62c0.02,0.03.03,0.07,0.05,0.1h0.01a2.635,2.635,0,0,0,2.35,1.43,2.669,2.669,0,0,0,2.67-2.67,2.84,2.84,0,0,0-.09-0.66,0.142,0.142,0,0,0-.01-0.11c-1.98-4.69-.09-9.83,2.23-15.38,2.51-5.98,5.21-12.63,2.24-19.39a2.6,2.6,0,0,0-5.03.94,2.665,2.665,0,0,0,.17.9,0.037,0.037,0,0,1,.01.03c0.01,0.01.01,0.03,0.02,0.04a0.637,0.637,0,0,0,.02.07c2.15,4.83.07,9.79-2.27,15.38-2.48,5.9-5.22,12.44-2.46,19.1C2076.31,2665.95,2076.34,2666.02,2076.37,2666.09Zm64.7-.77c0.02,0.03.03,0.06,0.05,0.09h0.01a2.644,2.644,0,0,0,2.35,1.44,2.676,2.676,0,0,0,2.67-2.67,2.926,2.926,0,0,0-.09-0.67,0.118,0.118,0,0,0-.01-0.1c-1.99-4.69-.09-9.84,2.23-15.38,2.51-5.99,5.21-12.63,2.24-19.39a2.6,2.6,0,0,0-5.03.93,2.665,2.665,0,0,0,.17.9,0.037,0.037,0,0,0,.01.03,0.257,0.257,0,0,0,.02.05c0.01,0.02.01,0.04,0.02,0.06,2.15,4.84.07,9.79-2.27,15.39-2.48,5.9-5.22,12.43-2.46,19.1C2141.01,2665.17,2141.04,2665.25,2141.07,2665.32Zm-27.28-22.95a0.355,0.355,0,0,0,.04.09h0.01a2.626,2.626,0,0,0,2.35,1.44,2.669,2.669,0,0,0,2.67-2.67,3,3,0,0,0-.09-0.67,0.17,0.17,0,0,0,0-.1c-1.99-4.69-.1-9.84,2.22-15.38,2.51-5.99,5.21-12.63,2.24-19.39a2.6,2.6,0,0,0-5.02.94,2.647,2.647,0,0,0,.16.89,0.076,0.076,0,0,1,.01.04c0.01,0.01.01,0.03,0.02,0.04a0.637,0.637,0,0,1,.02.07c2.15,4.83.07,9.78-2.27,15.38-2.48,5.9-5.22,12.44-2.46,19.1A1.472,1.472,0,0,0,2113.79,2642.37Z" transform="translate(-2034 -2604.03)"/>
</svg>
