<svg xmlns="http://www.w3.org/2000/svg" width="170" height="170"><path fill-rule="evenodd" fill="#F5EEE3" d="M167.063 94.971l-25.489 12.76c.314 1.241.612 2.482.848 3.754h14.296c7.322 0 13.281 5.962 13.281 13.295 0 2.607-.955 5.12-2.685 7.067l-18.565 20.908v3.931c0 7.333-5.959 13.295-13.281 13.295H34.53c-7.323 0-13.281-5.962-13.281-13.295v-3.931L2.684 131.847c-1.731-1.947-2.685-4.46-2.685-7.067 0-7.333 5.958-13.295 13.281-13.295h14.295c5.018-27.186 28.833-47.86 57.424-47.86 23.478 0 43.714 13.965 52.995 34l24.316-12.168c2.633-1.303 5.816-.249 7.128 2.378 1.313 2.628.249 5.822-2.375 7.136zM84.999 68.943c-25.655 0-47.117 18.301-52.054 42.542h5.466c4.837-21.307 23.839-37.224 46.588-37.224 19.364 0 35.999 11.544 43.517 28.11l4.734-2.368c-8.407-18.295-26.848-31.06-48.251-31.06zm0 26.589c10.863 0 20.199 6.58 24.311 15.953h.996l3.958-1.984c-4.895-11.331-16.166-19.287-29.265-19.287-13.847 0-25.626 8.901-30.015 21.271h5.704c4.112-9.373 13.447-15.953 24.311-15.953zm-18.295 15.953h6.503c2.918-3.24 7.099-5.317 11.792-5.317 4.692 0 8.874 2.077 11.792 5.317h6.503c-3.686-6.325-10.467-10.635-18.295-10.635-7.829 0-14.61 4.31-18.295 10.635zm18.295-26.589c15.174 0 28.235 9.161 34.012 22.232l4.745-2.373c-6.654-14.817-21.507-25.177-38.757-25.177-19.761 0-36.365 13.591-41.102 31.907h5.481c4.586-15.356 18.809-26.589 35.621-26.589zm51.719 25.259l-2.651 1.33h2.985c-.09-.452-.23-.883-.334-1.33zm-3.907 11.966H13.28c-1.468 0-2.656 1.189-2.656 2.659l21.25 23.929v7.977c0 1.47 1.188 2.659 2.656 2.659h100.938c1.468 0 2.656-1.189 2.656-2.659v-7.977l21.25-23.929c0-1.47-1.188-2.659-2.656-2.659h-23.907zm-20.757-62.713c.013.037.013.067.003.104.054.213.093.436.093.665 0 1.475-1.196 2.674-2.669 2.674-1.028 0-1.909-.587-2.356-1.438h-.01c-.015-.032-.026-.062-.041-.094-.034-.073-.062-.145-.091-.223-2.76-6.663-.021-13.201 2.456-19.101 2.343-5.592 4.418-10.547 2.273-15.381l-.024-.063a.37983.37983 0 0 1-.018-.047c-.005-.01-.005-.021-.008-.03-.103-.281-.168-.583-.168-.899 0-1.439 1.167-2.607 2.604-2.607 1.105 0 2.044.691 2.423 1.667 2.968 6.762.273 13.409-2.241 19.396-2.325 5.541-4.215 10.688-2.226 15.377zM84.766 36.46c.012.036.012.067.002.104.054.213.093.436.093.664 0 1.476-1.196 2.675-2.669 2.675-1.027 0-1.909-.587-2.355-1.438h-.011c-.015-.032-.025-.063-.041-.094-.034-.073-.063-.146-.091-.223-2.76-6.663-.02-13.201 2.457-19.101 2.342-5.593 4.417-10.547 2.272-15.382-.008-.02-.016-.042-.024-.062-.007-.016-.012-.031-.018-.047-.005-.011-.005-.021-.007-.031-.104-.281-.169-.582-.169-.898 0-1.439 1.167-2.608 2.604-2.608 1.105 0 2.044.691 2.423 1.667 2.968 6.762.272 13.409-2.241 19.397-2.324 5.541-4.216 10.687-2.225 15.377zM47.355 60.182c.013.037.013.067.003.104.054.213.093.436.093.665 0 1.474-1.196 2.674-2.669 2.674-1.028 0-1.91-.587-2.356-1.438h-.01c-.016-.032-.026-.062-.042-.094-.034-.073-.062-.145-.09-.223-2.761-6.663-.021-13.201 2.456-19.101 2.342-5.592 4.417-10.547 2.272-15.382-.008-.02-.015-.042-.023-.062-.008-.016-.013-.031-.018-.047-.005-.01-.005-.021-.008-.031-.104-.281-.169-.582-.169-.899 0-1.438 1.168-2.606 2.604-2.606 1.106 0 2.045.691 2.424 1.667 2.967 6.762.272 13.409-2.242 19.396-2.324 5.541-4.215 10.688-2.225 15.377z"/></svg>