<svg 
 xmlns="http://www.w3.org/2000/svg"
 xmlns:xlink="http://www.w3.org/1999/xlink"
 width="302px" height="302px">
<path fill-rule="evenodd"  stroke-width="8px" stroke="rgb(245, 238, 227)" fill-opacity="0" fill="rgb(212, 82, 68)"
 d="M151.000,9.009 C229.419,9.009 292.991,72.580 292.991,151.000 C292.991,229.420 229.419,292.991 151.000,292.991 C72.581,292.991 9.009,229.420 9.009,151.000 C9.009,72.580 72.581,9.009 151.000,9.009 Z"/>
<path fill-rule="evenodd"  fill="rgb(245, 238, 227)"
 d="M232.063,159.971 L206.574,172.731 C206.888,173.972 207.186,175.213 207.422,176.485 L221.718,176.485 C229.040,176.485 234.999,182.447 234.999,189.780 C234.999,192.387 234.044,194.900 232.314,196.847 L213.749,217.755 L213.749,221.686 C213.749,229.019 207.790,234.981 200.468,234.981 L99.530,234.981 C92.207,234.981 86.249,229.019 86.249,221.686 L86.249,217.755 L67.684,196.847 C65.953,194.900 64.999,192.387 64.999,189.780 C64.999,182.447 70.957,176.485 78.280,176.485 L92.575,176.485 C97.593,149.299 121.408,128.625 149.999,128.625 C173.477,128.625 193.713,142.590 202.994,162.625 L227.310,150.457 C229.943,149.154 233.126,150.208 234.438,152.835 C235.751,155.463 234.687,158.657 232.063,159.971 ZM149.999,133.943 C124.344,133.943 102.882,152.244 97.945,176.485 L103.411,176.485 C108.248,155.178 127.250,139.261 149.999,139.261 C169.363,139.261 185.998,150.805 193.516,167.371 L198.250,165.003 C189.843,146.708 171.402,133.943 149.999,133.943 ZM149.999,160.532 C160.862,160.532 170.198,167.112 174.310,176.485 L175.306,176.485 L179.264,174.501 C174.369,163.170 163.098,155.214 149.999,155.214 C136.152,155.214 124.373,164.115 119.984,176.485 L125.688,176.485 C129.800,167.112 139.135,160.532 149.999,160.532 ZM131.704,176.485 L138.207,176.485 C141.125,173.245 145.306,171.168 149.999,171.168 C154.691,171.168 158.873,173.245 161.791,176.485 L168.294,176.485 C164.608,170.160 157.827,165.850 149.999,165.850 C142.170,165.850 135.389,170.160 131.704,176.485 ZM149.999,149.896 C165.173,149.896 178.234,159.057 184.011,172.128 L188.756,169.755 C182.102,154.938 167.249,144.578 149.999,144.578 C130.238,144.578 113.634,158.169 108.897,176.485 L114.378,176.485 C118.964,161.129 133.187,149.896 149.999,149.896 ZM201.718,175.155 L199.067,176.485 L202.052,176.485 C201.962,176.033 201.822,175.602 201.718,175.155 ZM197.811,187.121 L192.499,187.121 L187.186,187.121 L181.874,187.121 L176.561,187.121 L171.249,187.121 L165.936,187.121 L134.061,187.121 L128.749,187.121 L123.436,187.121 L118.124,187.121 L112.811,187.121 L107.499,187.121 L102.186,187.121 L96.874,187.121 L91.561,187.121 L78.280,187.121 C76.812,187.121 75.624,188.310 75.624,189.780 L96.874,213.709 L96.874,221.686 C96.874,223.156 98.062,224.345 99.530,224.345 L200.468,224.345 C201.936,224.345 203.124,223.156 203.124,221.686 L203.124,213.709 L224.374,189.780 C224.374,188.310 223.186,187.121 221.718,187.121 L208.436,187.121 L203.124,187.121 L197.811,187.121 ZM177.054,124.408 C177.067,124.445 177.067,124.475 177.057,124.512 C177.111,124.725 177.150,124.948 177.150,125.177 C177.150,126.652 175.954,127.851 174.481,127.851 C173.453,127.851 172.572,127.264 172.125,126.413 C172.121,126.413 172.115,126.413 172.115,126.413 C172.100,126.381 172.089,126.351 172.074,126.319 C172.040,126.246 172.012,126.174 171.983,126.096 C169.223,119.433 171.962,112.895 174.439,106.995 C176.782,101.403 178.857,96.448 176.712,91.614 C176.704,91.593 176.696,91.572 176.688,91.551 C176.681,91.536 176.675,91.520 176.670,91.504 C176.665,91.494 176.665,91.483 176.662,91.474 C176.559,91.193 176.494,90.891 176.494,90.575 C176.494,89.136 177.661,87.968 179.098,87.968 C180.203,87.968 181.142,88.659 181.521,89.635 C184.489,96.397 181.794,103.044 179.280,109.031 C176.955,114.572 175.065,119.719 177.054,124.408 ZM149.766,101.460 C149.778,101.496 149.778,101.527 149.768,101.564 C149.822,101.777 149.861,102.000 149.861,102.228 C149.861,103.704 148.665,104.903 147.192,104.903 C146.165,104.903 145.283,104.316 144.837,103.465 C144.831,103.465 144.826,103.465 144.826,103.465 C144.811,103.433 144.801,103.402 144.785,103.371 C144.751,103.298 144.722,103.225 144.694,103.148 C141.934,96.485 144.674,89.947 147.151,84.047 C149.493,78.454 151.568,73.500 149.423,68.665 C149.415,68.645 149.407,68.623 149.399,68.603 C149.392,68.587 149.387,68.572 149.381,68.556 C149.376,68.545 149.376,68.535 149.374,68.525 C149.270,68.244 149.205,67.943 149.205,67.627 C149.205,66.188 150.372,65.019 151.809,65.019 C152.914,65.019 153.853,65.710 154.232,66.686 C157.200,73.448 154.504,80.095 151.991,86.083 C149.667,91.624 147.775,96.770 149.766,101.460 ZM112.355,125.182 C112.368,125.219 112.368,125.249 112.358,125.286 C112.412,125.499 112.451,125.722 112.451,125.951 C112.451,127.425 111.255,128.625 109.782,128.625 C108.754,128.625 107.872,128.038 107.426,127.187 C107.421,127.187 107.416,127.187 107.416,127.187 C107.400,127.155 107.390,127.125 107.374,127.093 C107.340,127.020 107.312,126.948 107.284,126.870 C104.523,120.207 107.263,113.669 109.740,107.769 C112.082,102.177 114.157,97.222 112.012,92.387 C112.004,92.367 111.997,92.345 111.989,92.325 C111.981,92.309 111.976,92.294 111.971,92.278 C111.966,92.268 111.966,92.257 111.963,92.247 C111.859,91.966 111.794,91.665 111.794,91.348 C111.794,89.910 112.962,88.742 114.398,88.742 C115.504,88.742 116.443,89.433 116.822,90.409 C119.789,97.171 117.094,103.818 114.580,109.805 C112.256,115.346 110.365,120.493 112.355,125.182 Z"/>
</svg>