<svg xmlns="http://www.w3.org/2000/svg" width="48.03" height="37.5" viewBox="0 0 48.03 37.5">
  <metadata><?xpacket begin="﻿" id="W5M0MpCehiHzreSzNTczkc9d"?>
<x:xmpmeta xmlns:x="adobe:ns:meta/" x:xmptk="Adobe XMP Core 5.6-c142 79.160924, 2017/07/13-01:06:39        ">
   <rdf:RDF xmlns:rdf="http://www.w3.org/1999/02/22-rdf-syntax-ns#">
      <rdf:Description rdf:about=""/>
   </rdf:RDF>
</x:xmpmeta>
                                                                                                    
                                                                                                    
                                                                                                    
                                                                                                    
                                                                                                    
                                                                                                    
                                                                                                    
                                                                                                    
                                                                                                    
                                                                                                    
                                                                                                    
                                                                                                    
                                                                                                    
                                                                                                    
                                                                                                    
                                                                                                    
                                                                                                    
                                                                                                    
                                                                                                    
                                                                                                    
                           
<?xpacket end="w"?></metadata>
<defs>
    <style>
      .cls-1 {
        fill: #828c8e;
        fill-rule: evenodd;
      }
    </style>
  </defs>
  <path id="tv" class="cls-1" d="M1169.23,4567.44a60.276,60.276,0,0,0-24.52,0,1.5,1.5,0,0,0-1.12,1,30.924,30.924,0,0,0,0,19.8,1.514,1.514,0,0,0,1.12,1,60.276,60.276,0,0,0,24.52,0,1.511,1.511,0,0,0,1.13-1,31.06,31.06,0,0,0,0-19.8A1.493,1.493,0,0,0,1169.23,4567.44Zm-0.3,20.33a58.713,58.713,0,0,1-23.91,0,29.282,29.282,0,0,1,0-18.86,58.713,58.713,0,0,1,23.91,0A29.416,29.416,0,0,1,1168.93,4587.77Zm13.34-23.79a3,3,0,0,0-2.56-2.28,162.879,162.879,0,0,0-39.47,0,3.006,3.006,0,0,0-2.56,2.28,62.236,62.236,0,0,0,0,29.04,3.006,3.006,0,0,0,2.56,2.28c3.16,0.39,6.33.67,9.51,0.87a0.471,0.471,0,0,0-.28.33c0,0.83,4.7,1.5,10.51,1.5s10.51-.67,10.51-1.5a0.471,0.471,0,0,0-.28-0.33c3.17-.2,6.35-0.48,9.5-0.87a3,3,0,0,0,2.56-2.28A61.973,61.973,0,0,0,1182.27,4563.98Zm-2.92,28.35a161.008,161.008,0,0,1-38.75,0,59.046,59.046,0,0,1,0-27.66,161.008,161.008,0,0,1,38.75,0A58.785,58.785,0,0,1,1179.35,4592.33Zm-3.61-19.83a2.25,2.25,0,1,0-2.25-2.25A2.247,2.247,0,0,0,1175.74,4572.5Zm0-3a0.75,0.75,0,1,1-.75.75A0.749,0.749,0,0,1,1175.74,4569.5Zm1.5,18h-4.5a0.75,0.75,0,1,0,0,1.5h4.5A0.75,0.75,0,0,0,1177.24,4587.5Zm1.5-4.5h-4.5a0.75,0.75,0,1,0,0,1.5h4.5A0.75,0.75,0,1,0,1178.74,4583Zm0-4.5h-4.5a0.75,0.75,0,1,0,0,1.5h4.5A0.75,0.75,0,1,0,1178.74,4578.5Zm-22.52-6.29-6.88.54a1.055,1.055,0,0,0-.87.82l-0.46,4.18a0.71,0.71,0,0,0,.71.75,0.8,0.8,0,0,0,.78-0.75l0.25-2.84a0.987,0.987,0,0,1,.84-0.82l5.63-.39a0.773,0.773,0,0,0,.75-0.77A0.706,0.706,0,0,0,1156.22,4572.21Z" transform="translate(-1135.97 -4560.5)"/>
</svg>
