<svg xmlns="http://www.w3.org/2000/svg" width="48" height="43.47" viewBox="0 0 48 43.47">
  <metadata><?xpacket begin="﻿" id="W5M0MpCehiHzreSzNTczkc9d"?>
<x:xmpmeta xmlns:x="adobe:ns:meta/" x:xmptk="Adobe XMP Core 5.6-c142 79.160924, 2017/07/13-01:06:39        ">
   <rdf:RDF xmlns:rdf="http://www.w3.org/1999/02/22-rdf-syntax-ns#">
      <rdf:Description rdf:about=""/>
   </rdf:RDF>
</x:xmpmeta>
                                                                                                    
                                                                                                    
                                                                                                    
                                                                                                    
                                                                                                    
                                                                                                    
                                                                                                    
                                                                                                    
                                                                                                    
                                                                                                    
                                                                                                    
                                                                                                    
                                                                                                    
                                                                                                    
                                                                                                    
                                                                                                    
                                                                                                    
                                                                                                    
                                                                                                    
                                                                                                    
                           
<?xpacket end="w"?></metadata>
<defs>
    <style>
      .cls-1 {
        fill: #828c8e;
        fill-rule: evenodd;
      }
    </style>
  </defs>
  <path id="clip" class="cls-1" d="M1180.05,5043.45a13.5,13.5,0,0,0-19.09,0l-21.89,21.6a10.5,10.5,0,1,0,14.85,14.84l21.88-21.61a7.492,7.492,0,0,0-10.6-10.59l-16.46,16.43a1.5,1.5,0,1,0,2.13,2.12l16.45-16.43a4.5,4.5,0,1,1,6.36,6.36l-21.88,21.6a7.5,7.5,0,1,1-10.61-10.6l21.67-21.39a10.5,10.5,0,0,1,14.85,14.84l-16.24,16.22a1.491,1.491,0,0,0,0,2.12,1.509,1.509,0,0,0,2.12,0l16.46-16.44A13.477,13.477,0,0,0,1180.05,5043.45Z" transform="translate(-1136 -5039.5)"/>
</svg>
