<svg xmlns="http://www.w3.org/2000/svg" width="48" height="46"><path fill-rule="evenodd" fill="#828C8E" d="M43.5 45.5h-39c-2.481 0-4.5-2.018-4.5-4.499V5C0 2.518 2.019.5 4.5.5H36c.795 0 1.559.316 2.121.878l9 9.001c.563.562.879 1.325.879 2.121v28.501c0 2.481-2.018 4.499-4.5 4.499zM36 3.5v6h-.001c0 1.654 1.346 3 3 3H45l-9-9zM45 14H38.999c-2.486 0-4.5-2.014-4.5-4.5h.001v-6h-30C3.671 3.5 3 4.171 3 5v36.001c0 .829.671 1.499 1.5 1.499h39c.829 0 1.5-.67 1.5-1.499V14zm-3.75 24H6.75c-.414 0-.75-.336-.75-.75 0-.416.336-.749.75-.749h34.5c.415 0 .75.333.75.749 0 .414-.335.75-.75.75zm0-4.499H6.75c-.414 0-.75-.337-.75-.751 0-.416.336-.75.75-.75h34.5c.415 0 .75.334.75.75 0 .414-.335.751-.75.751zm0-4.5H6.75c-.414 0-.75-.337-.75-.75 0-.416.336-.751.75-.751h34.5c.415 0 .75.335.75.751 0 .413-.335.75-.75.75zm0-4.501H6.75c-.414 0-.75-.336-.75-.75 0-.415.336-.75.75-.75h34.5c.415 0 .75.335.75.75 0 .414-.335.75-.75.75zm0-4.5h-18c-.415 0-.75-.336-.75-.75 0-.415.335-.75.75-.75h18c.415 0 .75.335.75.75 0 .414-.335.75-.75.75zm-10.5-4.5h-7.5c-.415 0-.75-.336-.75-.75 0-.415.335-.75.75-.75h7.5c.415 0 .75.335.75.75 0 .414-.335.75-.75.75zm0-4.5h-7.5c-.415 0-.75-.335-.75-.75s.335-.75.75-.75h7.5c.415 0 .75.335.75.75s-.335.75-.75.75zM18 20H7.5c-.829 0-1.5-.671-1.5-1.5v-9C6 8.671 6.671 8 7.5 8H18c.829 0 1.5.671 1.5 1.5v9c0 .829-.671 1.5-1.5 1.5zm-1.5-9H9v6h7.5v-6z"/></svg>