<svg xmlns="http://www.w3.org/2000/svg" width="48" height="45" viewBox="0 0 48 45">
  <metadata><?xpacket begin="﻿" id="W5M0MpCehiHzreSzNTczkc9d"?>
<x:xmpmeta xmlns:x="adobe:ns:meta/" x:xmptk="Adobe XMP Core 5.6-c142 79.160924, 2017/07/13-01:06:39        ">
   <rdf:RDF xmlns:rdf="http://www.w3.org/1999/02/22-rdf-syntax-ns#">
      <rdf:Description rdf:about=""/>
   </rdf:RDF>
</x:xmpmeta>
                                                                                                    
                                                                                                    
                                                                                                    
                                                                                                    
                                                                                                    
                                                                                                    
                                                                                                    
                                                                                                    
                                                                                                    
                                                                                                    
                                                                                                    
                                                                                                    
                                                                                                    
                                                                                                    
                                                                                                    
                                                                                                    
                                                                                                    
                                                                                                    
                                                                                                    
                                                                                                    
                           
<?xpacket end="w"?></metadata>
<defs>
    <style>
      .cls-1 {
        fill: #828c8e;
        fill-rule: evenodd;
      }
    </style>
  </defs>
  <path id="note" class="cls-1" d="M2143.12,4567.38l-9-9a3,3,0,0,0-2.12-.88h-31.5a4.507,4.507,0,0,0-4.5,4.5v36a4.507,4.507,0,0,0,4.5,4.5h39a4.507,4.507,0,0,0,4.5-4.5v-28.5A3,3,0,0,0,2143.12,4567.38ZM2141,4598a1.5,1.5,0,0,1-1.5,1.5h-39a1.5,1.5,0,0,1-1.5-1.5v-36a1.5,1.5,0,0,1,1.5-1.5h30v6h0a4.494,4.494,0,0,0,4.5,4.5h6v27Zm-4.5-28.5H2135a3,3,0,0,1-3-3h0v-6l9,9h-4.5Zm-17.25-1.5h7.5a0.75,0.75,0,0,0,0-1.5h-7.5A0.75,0.75,0,0,0,2119.25,4568Zm0,4.5h7.5a0.75,0.75,0,0,0,0-1.5h-7.5A0.75,0.75,0,0,0,2119.25,4572.5Zm-0.75,3.75a0.755,0.755,0,0,0,.75.75h18a0.75,0.75,0,0,0,0-1.5h-18A0.749,0.749,0,0,0,2118.5,4576.25Zm18.75,8.25h-34.5a0.75,0.75,0,0,0,0,1.5h34.5A0.75,0.75,0,0,0,2137.25,4584.5Zm0,4.5h-34.5a0.75,0.75,0,0,0,0,1.5h34.5A0.75,0.75,0,0,0,2137.25,4589Zm0,4.5h-34.5a0.75,0.75,0,0,0,0,1.5h34.5A0.75,0.75,0,0,0,2137.25,4593.5Zm0-13.5h-34.5a0.75,0.75,0,0,0,0,1.5h34.5A0.75,0.75,0,0,0,2137.25,4580Zm-33.75-3H2114a1.5,1.5,0,0,0,1.5-1.5v-9a1.5,1.5,0,0,0-1.5-1.5h-10.5a1.5,1.5,0,0,0-1.5,1.5v9A1.5,1.5,0,0,0,2103.5,4577Zm1.5-9h7.5v6H2105v-6Z" transform="translate(-2096 -4557.5)"/>
</svg>
