<svg xmlns="http://www.w3.org/2000/svg" width="48" height="44"><path fill-rule="evenodd" fill="#828C8E" d="M44.045 4.451c-5.271-5.268-13.819-5.268-19.09 0L3.07 26.053c-4.092 4.09-4.092 10.745 0 14.835 4.093 4.088 10.755 4.088 14.848 0l21.885-21.604c2.929-2.927 2.929-7.669 0-10.595-2.93-2.925-7.679-2.925-10.606 0L12.744 25.122c-.586.587-.586 1.534 0 2.121.586.585 1.535.585 2.121 0l16.453-16.436c1.755-1.751 4.609-1.751 6.364 0 1.755 1.753 1.755 4.605 0 6.359L15.797 38.768c-2.93 2.926-7.676 2.926-10.606 0-2.929-2.926-2.929-7.67 0-10.594L26.862 6.782c4.102-4.097 10.752-4.097 14.848 0 4.105 4.098 4.105 10.736.003 14.833L25.474 37.837c-.589.587-.589 1.534 0 2.118.585.587 1.535.587 2.121 0l16.45-16.433c5.273-5.267 5.273-13.805 0-19.071z"/></svg>