<svg xmlns="http://www.w3.org/2000/svg" width="49" height="48"><path fill-rule="evenodd" fill="#828C8E" d="M47.499 22.5c-.827 0-1.498-.668-1.5-1.494h-.003c0-9.926-8.083-18-18.018-18V3c-.828-.001-1.5-.672-1.5-1.5 0-.829.672-1.5 1.502-1.5.014 0 .026.007.039.009 11.585.02 20.969 9.403 20.978 20.979 0 .005.003.008.003.012 0 .829-.672 1.5-1.501 1.5zm-6.005-1.494h-.003c0-7.444-6.061-13.5-13.513-13.5V7.5c-.415-.001-.749-.337-.749-.75 0-.414.335-.75.751-.75.014 0 .026.007.039.009 8.268.021 14.964 6.716 14.972 14.979 0 .005.003.008.003.012 0 .415-.336.75-.751.75-.413 0-.746-.333-.749-.744zm7.161 18.217C47.959 40.905 46.317 42 44.494 42H23.839l-4.686 4.682c-.88.879-2.033 1.318-3.185 1.318-1.153 0-2.305-.439-3.185-1.318l-10.51-10.5c-1.76-1.756-1.76-4.607 0-6.363l4.685-4.682L6.959 4.5c0-1.82 1.098-3.461 2.781-4.157C10.298.111 10.883 0 11.462 0c1.173 0 2.325.457 3.186 1.319l33.031 32.999c1.289 1.287 1.675 3.223.976 4.905zM9.111 27.212c-.013.014-.017.033-.03.046l-4.685 4.683c-.383.381-.44.828-.44 1.059 0 .231.057.678.44 1.061l10.51 10.5c.383.382.83.439 1.062.439.232 0 .679-.057 1.061-.439l4.687-4.682c.013-.013.032-.018.045-.029L9.111 27.212zm.716-1.406l13.34 13.327c.223-.051.439-.133.672-.133h18.086L9.962 7.068 9.96 25.137c0 .231-.082.447-.133.669zM45.556 36.44L12.524 3.438c-.283-.283-.66-.438-1.062-.438-.196 0-.389.038-.573.115-.563.232-.927.776-.927 1.385v.447L44.048 39h.446c.61 0 1.154-.363 1.387-.926.233-.562.106-1.204-.325-1.634z"/></svg>