<svg xmlns="http://www.w3.org/2000/svg" width="46" height="48"><path fill-rule="evenodd" fill="#828C8E" d="M39.5 48.001h-33c-3.313 0-6-2.687-6-6V6c0-3.314 2.687-6 6-6h33c3.314 0 6 2.686 6 6v36.001c0 3.313-2.686 6-6 6zM42.5 6c0-1.654-1.346-3-3-3h-33c-1.654 0-3 1.346-3 3v36.001c0 1.652 1.346 3 3 3h33c1.654 0 3-1.348 3-3V6zM38 36H8c-.829 0-1.5-.67-1.5-1.499V7.5C6.5 6.671 7.171 6 8 6h30c.829 0 1.5.671 1.5 1.5v27.001C39.5 35.33 38.829 36 38 36zM8 34.501h23.112l-4.142-4.799-.87-.988L14 15l-6 6.899v12.602zM38 7.5H8v12.13l4.875-5.622c.286-.324.694-.508 1.125-.508.431 0 .839.184 1.125.508l11.846 13.426 3.904-4.426c.286-.323.694-.508 1.125-.508.431 0 .839.185 1.125.508L38 28.304V7.5zm0 23.069L32 24l-4.03 4.568 5.142 5.933H38v-3.932zM29 19.5c-2.486 0-4.5-2.014-4.5-4.5s2.014-4.5 4.5-4.5 4.5 2.014 4.5 4.5-2.014 4.5-4.5 4.5zm0-7.5c-1.654 0-3 1.346-3 3s1.346 3 3 3 3-1.346 3-3-1.346-3-3-3z"/></svg>