<svg xmlns="http://www.w3.org/2000/svg" width="49" height="38"><path fill-rule="evenodd" fill="#828C8E" d="M47.27 33.02c-.291 1.221-1.312 2.133-2.559 2.284-3.154.382-6.33.663-9.506.862.172.109.282.22.282.334 0 .829-4.705 1.5-10.511 1.5-5.804 0-10.51-.671-10.51-1.5 0-.114.11-.225.282-.334-3.176-.199-6.352-.48-9.506-.862-1.246-.151-2.268-1.063-2.559-2.284-2.296-9.635-2.296-19.405 0-29.039.291-1.222 1.313-2.133 2.559-2.284C11.789.903 18.428.5 24.976.5c6.549 0 13.188.403 19.735 1.197 1.247.151 2.268 1.062 2.559 2.284 2.296 9.634 2.296 19.404 0 29.039zM44.349 4.675c-12.915-1.566-25.83-1.566-38.745 0-2.196 9.217-2.196 18.433 0 27.651 12.915 1.565 25.83 1.565 38.745 0 2.197-9.218 2.197-18.434 0-27.651zM43.745 24.5H39.24c-.414 0-.75-.335-.75-.75 0-.414.336-.75.75-.75h4.505c.415 0 .751.336.751.75 0 .415-.336.75-.751.75zm0-4.5H39.24c-.414 0-.75-.335-.75-.75s.336-.75.75-.75h4.505c.415 0 .751.335.751.75s-.336.75-.751.75zm-3.003-7.5c-1.243 0-2.252-1.008-2.252-2.25S39.499 8 40.742 8c1.243 0 2.252 1.008 2.252 2.25s-1.009 2.25-2.252 2.25zm0-3c-.413 0-.751.337-.751.75s.338.75.751.75.751-.337.751-.75-.338-.75-.751-.75zm2.252 18.75c0 .415-.336.75-.751.75h-4.504c-.415 0-.751-.335-.751-.75 0-.414.336-.75.751-.75h4.504c.415 0 .751.336.751.75zm-8.761.992c-4.066.835-8.19 1.258-12.259 1.258-4.069 0-8.194-.423-12.26-1.258-.526-.109-.956-.489-1.125-1.001-2.165-6.571-2.165-13.233 0-19.804.169-.512.599-.892 1.125-1.001 4.066-.835 8.191-1.258 12.26-1.258 4.069 0 8.193.423 12.259 1.258.527.109.956.489 1.125 1.001 2.165 6.571 2.165 13.233 0 19.804-.169.512-.598.892-1.125 1.001zm-.302-20.336c-7.971-1.637-15.944-1.637-23.915 0-2.073 6.29-2.073 12.576 0 18.867 7.971 1.636 15.944 1.636 23.915 0 2.073-6.291 2.073-12.577 0-18.867zm-12.708 4.798l-5.629.386c-.411.042-.792.41-.848.818l-.25 2.842c-.017.413-.367.75-.777.75-.413 0-.732-.337-.712-.748l.459-4.18c.069-.407.461-.779.871-.826l6.886-.539c.413-.016.751.308.751.721s-.338.761-.751.776z"/></svg>