<svg xmlns="http://www.w3.org/2000/svg" width="48.03" height="48" viewBox="0 0 48.03 48">
  <metadata><?xpacket begin="﻿" id="W5M0MpCehiHzreSzNTczkc9d"?>
<x:xmpmeta xmlns:x="adobe:ns:meta/" x:xmptk="Adobe XMP Core 5.6-c142 79.160924, 2017/07/13-01:06:39        ">
   <rdf:RDF xmlns:rdf="http://www.w3.org/1999/02/22-rdf-syntax-ns#">
      <rdf:Description rdf:about=""/>
   </rdf:RDF>
</x:xmpmeta>
                                                                                                    
                                                                                                    
                                                                                                    
                                                                                                    
                                                                                                    
                                                                                                    
                                                                                                    
                                                                                                    
                                                                                                    
                                                                                                    
                                                                                                    
                                                                                                    
                                                                                                    
                                                                                                    
                                                                                                    
                                                                                                    
                                                                                                    
                                                                                                    
                                                                                                    
                                                                                                    
                           
<?xpacket end="w"?></metadata>
<defs>
    <style>
      .cls-1 {
        fill: #828c8e;
        fill-rule: evenodd;
      }
    </style>
  </defs>
  <path id="sound" class="cls-1" d="M1656.49,4577.01h0a0.75,0.75,0,0,0,1.5-.01v-0.01a15,15,0,0,0-14.97-14.98c-0.01,0-.03-0.01-0.04-0.01a0.75,0.75,0,1,0,0,1.5v0.01A13.516,13.516,0,0,1,1656.49,4577.01Zm-26.84-19.69a4.5,4.5,0,0,0-7.69,3.18v20.64l-4.69,4.68a4.49,4.49,0,0,0,0,6.36l10.51,10.5a4.5,4.5,0,0,0,6.37,0l4.69-4.68h20.65a4.5,4.5,0,0,0,3.19-7.68Zm7.07,38.56-4.69,4.68a1.5,1.5,0,0,1-2.12,0l-10.51-10.5a1.5,1.5,0,0,1,0-2.12l4.68-4.68c0.01-.02.02-0.03,0.03-0.05l12.65,12.64C1636.75,4595.86,1636.73,4595.87,1636.72,4595.88Zm2.12-.88a3.055,3.055,0,0,0-.67.13l-13.34-13.32a3.172,3.172,0,0,0,.13-0.67v-18.07l31.97,31.93h-18.09Zm22.04-.93a1.489,1.489,0,0,1-1.39.93h-0.44l-34.09-34.05v-0.45a1.515,1.515,0,0,1,.93-1.39,1.6,1.6,0,0,1,.57-0.11,1.5,1.5,0,0,1,1.06.44l33.04,33A1.493,1.493,0,0,1,1660.88,4594.07Zm-17.9-35.07v0.01a18.031,18.031,0,0,1,18.02,18h0a1.5,1.5,0,0,0,3-.01v-0.01a21.008,21.008,0,0,0-20.98-20.98c-0.01,0-.03-0.01-0.04-0.01A1.5,1.5,0,1,0,1642.98,4559Z" transform="translate(-1615.97 -4556)"/>
</svg>
