<svg xmlns="http://www.w3.org/2000/svg" width="170.094" height="133" viewBox="0 0 170.094 133">
  <metadata><?xpacket begin="﻿" id="W5M0MpCehiHzreSzNTczkc9d"?>
<x:xmpmeta xmlns:x="adobe:ns:meta/" x:xmptk="Adobe XMP Core 5.6-c142 79.160924, 2017/07/13-01:06:39        ">
   <rdf:RDF xmlns:rdf="http://www.w3.org/1999/02/22-rdf-syntax-ns#">
      <rdf:Description rdf:about=""/>
   </rdf:RDF>
</x:xmpmeta>
                                                                                                    
                                                                                                    
                                                                                                    
                                                                                                    
                                                                                                    
                                                                                                    
                                                                                                    
                                                                                                    
                                                                                                    
                                                                                                    
                                                                                                    
                                                                                                    
                                                                                                    
                                                                                                    
                                                                                                    
                                                                                                    
                                                                                                    
                                                                                                    
                                                                                                    
                                                                                                    
                           
<?xpacket end="w"?></metadata>
<defs>
    <style>
      .cls-1 {
        fill: #f5eee3;
        fill-rule: evenodd;
      }
    </style>
  </defs>
  <path id="tv" class="cls-1" d="M712.7,2648.6a213.581,213.581,0,0,0-86.839,0,5.326,5.326,0,0,0-3.983,3.55,110.083,110.083,0,0,0,0,70.24,5.345,5.345,0,0,0,3.983,3.55,213.581,213.581,0,0,0,86.839,0,5.343,5.343,0,0,0,3.983-3.55,110.083,110.083,0,0,0,0-70.24A5.325,5.325,0,0,0,712.7,2648.6Zm-1.07,72.13a208.322,208.322,0,0,1-84.7,0,104.4,104.4,0,0,1,0-66.92,208.322,208.322,0,0,1,84.7,0A104.4,104.4,0,0,1,711.631,2720.73Zm47.241-84.39a10.641,10.641,0,0,0-9.062-8.1,578.193,578.193,0,0,0-139.787,0,10.641,10.641,0,0,0-9.061,8.1,220.456,220.456,0,0,0,0,103,10.641,10.641,0,0,0,9.061,8.1c11.171,1.35,22.419,2.35,33.667,3.06a1.709,1.709,0,0,0-1,1.18c0,2.94,16.665,5.32,37.224,5.32s37.224-2.38,37.224-5.32a1.709,1.709,0,0,0-1-1.18c11.248-.71,22.5-1.71,33.666-3.06a10.641,10.641,0,0,0,9.062-8.1A220.456,220.456,0,0,0,758.872,2636.34Zm-10.344,100.53a566.53,566.53,0,0,1-137.222,0,208.937,208.937,0,0,1,0-98.06,566.53,566.53,0,0,1,137.222,0A208.937,208.937,0,0,1,748.528,2736.87Zm-12.776-70.31a7.98,7.98,0,1,0-7.976-7.98A7.977,7.977,0,0,0,735.752,2666.56Zm0-10.64a2.66,2.66,0,1,1-2.658,2.66A2.668,2.668,0,0,1,735.752,2655.92Zm5.318,63.84H725.117a2.66,2.66,0,0,0,0,5.32H741.07A2.66,2.66,0,0,0,741.07,2719.76Zm5.318-15.96H730.435a2.66,2.66,0,0,0,0,5.32h15.953A2.66,2.66,0,0,0,746.388,2703.8Zm0-15.96H730.435a2.66,2.66,0,0,0,0,5.32h15.953A2.66,2.66,0,0,0,746.388,2687.84Zm-79.765-22.32-24.387,1.91a3.769,3.769,0,0,0-3.085,2.93l-1.625,14.83a2.5,2.5,0,0,0,2.519,2.65,2.789,2.789,0,0,0,2.752-2.66l0.888-10.08a3.552,3.552,0,0,1,3-2.9l19.936-1.37a2.78,2.78,0,0,0,2.658-2.75A2.541,2.541,0,0,0,666.623,2665.52Z" transform="translate(-594.875 -2624)"/>
</svg>
