<svg xmlns="http://www.w3.org/2000/svg" width="171" height="133"><path fill-rule="evenodd" fill="#F5EEE3" d="M164.872 115.336c-1.028 4.333-4.647 7.565-9.062 8.1-11.17 1.355-22.418 2.353-33.666 3.06.607.384.997.779.997 1.184 0 2.941-16.665 5.32-37.224 5.32-20.559 0-37.224-2.379-37.224-5.32 0-.405.39-.8.997-1.184-11.248-.707-22.496-1.705-33.667-3.06-4.414-.535-8.033-3.767-9.061-8.1-8.133-34.169-8.133-68.822 0-102.992 1.028-4.333 4.647-7.564 9.061-8.099C39.21 1.429 62.725.001 85.917.001c23.192 0 46.706 1.428 69.893 4.244 4.415.535 8.034 3.766 9.062 8.099 8.133 34.17 8.133 68.823 0 102.992zM154.528 14.807c-45.741-5.554-91.481-5.554-137.222 0-7.779 32.688-7.779 65.378 0 98.066 45.741 5.555 91.481 5.555 137.222 0 7.779-32.688 7.779-65.378 0-98.066zm-2.14 70.313h-15.953c-1.47 0-2.659-1.189-2.659-2.66 0-1.47 1.189-2.66 2.659-2.66h15.953c1.47 0 2.659 1.19 2.659 2.66 0 1.471-1.189 2.66-2.659 2.66zm0-15.96h-15.953c-1.47 0-2.659-1.19-2.659-2.66 0-1.47 1.189-2.66 2.659-2.66h15.953c1.47 0 2.659 1.19 2.659 2.66 0 1.47-1.189 2.66-2.659 2.66zm-10.636-26.6c-4.403 0-7.976-3.574-7.976-7.98 0-4.406 3.573-7.98 7.976-7.98 4.405 0 7.977 3.574 7.977 7.98 0 4.406-3.572 7.98-7.977 7.98zm0-10.64c-1.463 0-2.658 1.195-2.658 2.66s1.195 2.66 2.658 2.66c1.465 0 2.659-1.195 2.659-2.66s-1.194-2.66-2.659-2.66zm7.977 66.501c0 1.47-1.189 2.659-2.659 2.659h-15.953c-1.469 0-2.659-1.189-2.659-2.659 0-1.471 1.19-2.661 2.659-2.661h15.953c1.47 0 2.659 1.19 2.659 2.661zm-31.028 3.516c-14.4 2.962-29.009 4.463-43.42 4.463-14.41 0-29.018-1.501-43.419-4.463-1.864-.384-3.385-1.735-3.983-3.548-7.67-23.306-7.67-46.934 0-70.241.598-1.813 2.119-3.164 3.983-3.548 14.401-2.961 29.009-4.463 43.419-4.463 14.411 0 29.02 1.502 43.42 4.463 1.864.384 3.386 1.735 3.983 3.548 7.67 23.307 7.67 46.935 0 70.241-.597 1.813-2.119 3.164-3.983 3.548zm-1.07-72.126c-28.23-5.803-56.469-5.803-84.699 0-7.343 22.309-7.343 44.607 0 66.916 28.23 5.803 56.469 5.803 84.699 0 7.343-22.309 7.343-44.607 0-66.916zm-45.008 17.02l-19.936 1.366c-1.454.151-2.804 1.455-3.002 2.904l-.888 10.08c-.057 1.464-1.299 2.659-2.752 2.659-1.459 0-2.591-1.195-2.519-2.655l1.625-14.822c.244-1.444 1.631-2.764 3.085-2.93l24.387-1.912c1.464-.057 2.658 1.092 2.658 2.556 0 1.466-1.194 2.702-2.658 2.754z"/></svg>