<svg 
 xmlns="http://www.w3.org/2000/svg"
 xmlns:xlink="http://www.w3.org/1999/xlink"
 width="302px" height="302px">
<path fill-rule="evenodd"  stroke-width="8px" stroke="rgb(245, 238, 227)" fill-opacity="0" fill="rgb(212, 82, 68)"
 d="M151.000,9.009 C229.419,9.009 292.991,72.580 292.991,151.000 C292.991,229.420 229.419,292.991 151.000,292.991 C72.581,292.991 9.009,229.420 9.009,151.000 C9.009,72.580 72.581,9.009 151.000,9.009 Z"/>
<path fill-rule="evenodd"  fill="rgb(245, 238, 227)"
 d="M229.872,200.336 C228.844,204.669 225.225,207.901 220.810,208.436 C209.640,209.791 198.392,210.789 187.144,211.496 C187.751,211.880 188.141,212.275 188.141,212.680 C188.141,215.621 171.476,218.000 150.917,218.000 C130.358,218.000 113.693,215.621 113.693,212.680 C113.693,212.275 114.083,211.880 114.690,211.496 C103.442,210.789 92.194,209.791 81.023,208.436 C76.609,207.901 72.990,204.669 71.962,200.336 C63.829,166.167 63.829,131.514 71.962,97.344 C72.990,93.011 76.609,89.780 81.023,89.245 C104.210,86.429 127.725,85.001 150.917,85.001 C174.109,85.001 197.623,86.429 220.810,89.245 C225.225,89.780 228.844,93.011 229.872,97.344 C238.005,131.514 238.005,166.167 229.872,200.336 ZM219.528,99.807 C173.787,94.253 128.047,94.253 82.306,99.807 C74.527,132.495 74.527,165.185 82.306,197.873 C128.047,203.428 173.787,203.428 219.528,197.873 C227.307,165.185 227.307,132.495 219.528,99.807 ZM217.388,170.120 L201.435,170.120 C199.965,170.120 198.776,168.931 198.776,167.460 C198.776,165.990 199.965,164.800 201.435,164.800 L217.388,164.800 C218.858,164.800 220.047,165.990 220.047,167.460 C220.047,168.931 218.858,170.120 217.388,170.120 ZM217.388,154.160 L201.435,154.160 C199.965,154.160 198.776,152.970 198.776,151.500 C198.776,150.030 199.965,148.840 201.435,148.840 L217.388,148.840 C218.858,148.840 220.047,150.030 220.047,151.500 C220.047,152.970 218.858,154.160 217.388,154.160 ZM206.752,127.560 C202.349,127.560 198.776,123.986 198.776,119.580 C198.776,115.174 202.349,111.600 206.752,111.600 C211.157,111.600 214.729,115.174 214.729,119.580 C214.729,123.986 211.157,127.560 206.752,127.560 ZM206.752,116.920 C205.289,116.920 204.094,118.115 204.094,119.580 C204.094,121.045 205.289,122.240 206.752,122.240 C208.217,122.240 209.411,121.045 209.411,119.580 C209.411,118.115 208.217,116.920 206.752,116.920 ZM214.729,183.421 C214.729,184.891 213.540,186.080 212.070,186.080 L196.117,186.080 C194.648,186.080 193.458,184.891 193.458,183.421 C193.458,181.950 194.648,180.760 196.117,180.760 L212.070,180.760 C213.540,180.760 214.729,181.950 214.729,183.421 ZM183.701,186.937 C169.301,189.899 154.692,191.400 140.281,191.400 C125.871,191.400 111.263,189.899 96.862,186.937 C94.998,186.553 93.477,185.202 92.879,183.389 C85.209,160.083 85.209,136.455 92.879,113.148 C93.477,111.335 94.998,109.984 96.862,109.600 C111.263,106.639 125.871,105.137 140.281,105.137 C154.692,105.137 169.301,106.639 183.701,109.600 C185.565,109.984 187.087,111.335 187.684,113.148 C195.354,136.455 195.354,160.083 187.684,183.389 C187.087,185.202 185.565,186.553 183.701,186.937 ZM182.631,114.811 C154.401,109.008 126.162,109.008 97.932,114.811 C90.589,137.120 90.589,159.418 97.932,181.727 C126.162,187.530 154.401,187.530 182.631,181.727 C189.974,159.418 189.974,137.120 182.631,114.811 ZM137.623,131.831 L117.687,133.197 C116.233,133.348 114.883,134.652 114.685,136.101 L113.797,146.181 C113.740,147.645 112.498,148.840 111.045,148.840 C109.586,148.840 108.454,147.645 108.526,146.185 L110.151,131.363 C110.395,129.919 111.782,128.599 113.236,128.433 L137.623,126.521 C139.087,126.464 140.281,127.613 140.281,129.077 C140.281,130.543 139.087,131.779 137.623,131.831 Z"/>
</svg>