<svg 
 xmlns="http://www.w3.org/2000/svg"
 xmlns:xlink="http://www.w3.org/1999/xlink"
 width="302px" height="302px">
<path fill-rule="evenodd"  stroke-width="8px" stroke="rgb(245, 238, 227)" fill-opacity="0" fill="rgb(212, 82, 68)"
 d="M151.000,9.009 C229.420,9.009 292.991,72.580 292.991,151.000 C292.991,229.420 229.420,292.991 151.000,292.991 C72.581,292.991 9.009,229.420 9.009,151.000 C9.009,72.580 72.581,9.009 151.000,9.009 Z"/>
<path fill-rule="evenodd"  fill="rgb(245, 238, 227)"
 d="M229.879,181.586 C212.433,225.149 162.976,246.324 119.413,228.878 C75.850,211.437 54.672,161.977 72.121,118.409 C89.564,74.846 139.021,53.677 182.584,71.117 C226.148,88.563 247.325,138.018 229.879,181.586 ZM178.635,80.981 C140.577,65.734 97.219,84.306 81.977,122.361 C66.741,160.422 85.304,203.777 123.362,219.019 C161.418,234.256 204.778,215.695 220.020,177.634 C235.257,139.579 216.696,96.218 178.635,80.981 ZM176.250,208.460 C176.188,208.492 176.144,208.549 176.079,208.580 C174.730,209.155 173.172,208.538 172.593,207.185 C172.015,205.836 172.640,204.275 173.983,203.699 C187.726,197.813 199.229,186.689 205.224,171.712 C205.769,170.353 207.317,169.689 208.675,170.234 C210.037,170.778 210.701,172.324 210.156,173.687 C203.653,189.925 191.168,202.019 176.250,208.460 ZM172.041,198.715 C171.982,198.747 171.953,198.794 171.898,198.819 C170.550,199.395 168.989,198.773 168.414,197.424 C167.833,196.076 168.460,194.515 169.809,193.934 L169.803,193.934 C181.052,189.121 190.460,180.020 195.360,167.765 C195.910,166.401 197.451,165.743 198.814,166.287 C200.173,166.831 200.839,168.377 200.292,169.741 C194.873,183.277 184.470,193.348 172.041,198.715 ZM190.434,165.789 C186.098,176.618 177.777,184.677 167.830,188.977 C167.789,188.992 167.765,189.033 167.716,189.054 C166.370,189.629 164.809,189.007 164.231,187.653 C163.653,186.310 164.281,184.750 165.624,184.174 C174.370,180.430 181.685,173.351 185.504,163.814 L185.509,163.818 C186.052,162.454 187.599,161.791 188.961,162.340 C190.320,162.885 190.983,164.431 190.439,165.789 L190.434,165.789 ZM139.153,179.574 C122.823,173.034 114.878,154.489 121.420,138.152 C127.959,121.821 146.508,113.876 162.844,120.422 C179.180,126.961 187.120,145.506 180.580,161.843 C174.038,178.179 155.492,186.119 139.153,179.574 ZM158.895,130.275 C148.019,125.924 135.632,131.229 131.278,142.099 C126.928,152.969 132.230,165.364 143.106,169.715 C153.975,174.077 166.365,168.766 170.722,157.896 C175.072,147.026 169.773,134.631 158.895,130.275 ZM147.047,159.856 C141.606,157.678 138.959,151.496 141.140,146.051 C143.321,140.606 149.505,137.955 154.950,140.139 C160.396,142.322 163.038,148.504 160.857,153.949 C158.679,159.390 152.495,162.040 147.047,159.856 ZM152.975,145.066 C150.257,143.982 147.159,145.304 146.067,148.022 C144.983,150.744 146.305,153.835 149.023,154.929 C151.740,156.013 154.837,154.691 155.928,151.973 C157.015,149.251 155.690,146.155 152.975,145.066 ZM136.374,115.826 C127.630,119.565 120.310,126.650 116.496,136.177 L116.490,136.177 C115.946,137.535 114.401,138.199 113.037,137.655 C111.675,137.110 111.014,135.570 111.558,134.206 L111.564,134.206 C115.899,123.382 124.220,115.318 134.168,111.019 C134.206,111.003 134.232,110.962 134.281,110.947 C135.630,110.366 137.188,110.983 137.769,112.336 C138.345,113.690 137.720,115.246 136.374,115.826 ZM132.192,106.056 L132.192,106.066 C120.951,110.874 111.538,119.981 106.637,132.235 C106.087,133.599 104.544,134.253 103.183,133.713 C101.824,133.164 101.156,131.623 101.705,130.260 C107.125,116.729 117.528,106.647 129.959,101.274 C130.016,101.254 130.047,101.201 130.099,101.181 C131.447,100.600 133.008,101.228 133.587,102.570 C134.165,103.924 133.537,105.480 132.192,106.056 ZM128.014,96.296 C114.268,102.182 102.771,113.306 96.775,128.283 C96.228,129.647 94.683,130.306 93.324,129.762 C91.960,129.217 91.297,127.671 91.846,126.302 C98.349,110.065 110.832,97.976 125.753,91.530 C125.810,91.499 125.857,91.441 125.919,91.416 C127.267,90.840 128.826,91.462 129.407,92.811 C129.985,94.159 129.357,95.715 128.014,96.296 Z"/>
</svg>