<svg xmlns="http://www.w3.org/2000/svg" width="170" height="170"><path fill-rule="evenodd" fill="#F5EEE3" d="M163.879 116.586c-17.446 43.563-66.903 64.738-110.466 47.292C9.85 146.437-11.328 96.977 6.121 53.409c17.443-43.563 66.9-64.732 110.463-47.292 43.564 17.446 64.741 66.901 47.295 110.469zM112.635 15.981C74.577.734 31.219 19.306 15.977 57.361c-15.236 38.061 3.327 81.416 41.385 96.658 38.056 15.237 81.416-3.324 96.658-41.385 15.237-38.055-3.324-81.416-41.385-96.653zM110.25 143.46c-.062.032-.106.089-.171.12-1.349.575-2.907-.042-3.486-1.395-.578-1.349.047-2.91 1.39-3.486 13.743-5.886 25.246-17.01 31.241-31.987.545-1.359 2.093-2.023 3.451-1.478 1.362.544 2.026 2.09 1.481 3.453-6.503 16.238-18.988 28.332-33.906 34.773zm-4.209-9.745c-.059.032-.088.079-.143.104-1.348.576-2.909-.046-3.484-1.395-.581-1.348.046-2.909 1.395-3.49h-.006c11.249-4.813 20.657-13.914 25.557-26.169.55-1.364 2.091-2.022 3.454-1.478 1.359.544 2.025 2.09 1.478 3.454-5.419 13.536-15.822 23.607-28.251 28.974zm18.393-32.926c-4.336 10.829-12.657 18.888-22.604 23.188-.041.015-.065.056-.114.077-1.346.575-2.907-.047-3.485-1.401-.578-1.343.05-2.903 1.393-3.479 8.746-3.744 16.061-10.823 19.88-20.36l.005.004c.543-1.364 2.09-2.027 3.452-1.478 1.359.545 2.022 2.091 1.478 3.449h-.005zm-51.281 13.785c-16.33-6.54-24.275-25.085-17.733-41.422 6.539-16.331 25.088-24.276 41.424-17.73 16.336 6.539 24.276 25.084 17.736 41.421-6.542 16.336-25.088 24.276-41.427 17.731zm19.742-49.299c-10.876-4.351-23.263.954-27.617 11.824-4.35 10.87.952 23.265 11.828 27.616 10.869 4.362 23.259-.949 27.616-11.819 4.35-10.87-.949-23.265-11.827-27.621zM81.047 94.856c-5.441-2.178-8.088-8.36-5.907-13.805 2.181-5.445 8.365-8.096 13.81-5.912 5.446 2.183 8.088 8.365 5.907 13.81-2.178 5.441-8.362 8.091-13.81 5.907zm5.928-14.79c-2.718-1.084-5.816.238-6.908 2.956-1.084 2.722.238 5.813 2.956 6.907 2.717 1.084 5.814-.238 6.905-2.956 1.087-2.722-.238-5.818-2.953-6.907zm-16.601-29.24C61.63 54.565 54.31 61.65 50.496 71.177h-.006c-.544 1.358-2.089 2.022-3.453 1.478-1.362-.545-2.023-2.085-1.479-3.449h.006c4.335-10.824 12.656-18.888 22.604-23.187.038-.016.064-.057.113-.072 1.349-.581 2.907.036 3.488 1.389.576 1.354-.049 2.91-1.395 3.49zm-4.182-9.77v.01c-11.241 4.808-20.654 13.915-25.555 26.169-.55 1.364-2.093 2.018-3.454 1.478-1.359-.549-2.027-2.09-1.478-3.453 5.42-13.531 15.823-23.613 28.254-28.986.057-.02.088-.073.14-.093 1.348-.581 2.909.047 3.488 1.389.578 1.354-.05 2.91-1.395 3.486zm-4.178-9.76c-13.746 5.886-25.243 17.01-31.239 31.987-.547 1.364-2.092 2.023-3.451 1.479-1.364-.545-2.027-2.091-1.478-3.46 6.503-16.237 18.986-28.326 33.907-34.772.057-.031.104-.089.166-.114 1.348-.576 2.907.046 3.488 1.395.578 1.348-.05 2.904-1.393 3.485z"/></svg>