<svg xmlns="http://www.w3.org/2000/svg" width="170" height="170" viewBox="0 0 170 170">
  <metadata><?xpacket begin="﻿" id="W5M0MpCehiHzreSzNTczkc9d"?>
<x:xmpmeta xmlns:x="adobe:ns:meta/" x:xmptk="Adobe XMP Core 5.6-c142 79.160924, 2017/07/13-01:06:39        ">
   <rdf:RDF xmlns:rdf="http://www.w3.org/1999/02/22-rdf-syntax-ns#">
      <rdf:Description rdf:about=""/>
   </rdf:RDF>
</x:xmpmeta>
                                                                                                    
                                                                                                    
                                                                                                    
                                                                                                    
                                                                                                    
                                                                                                    
                                                                                                    
                                                                                                    
                                                                                                    
                                                                                                    
                                                                                                    
                                                                                                    
                                                                                                    
                                                                                                    
                                                                                                    
                                                                                                    
                                                                                                    
                                                                                                    
                                                                                                    
                                                                                                    
                           
<?xpacket end="w"?></metadata>
<defs>
    <style>
      .cls-1 {
        fill: #f5eee3;
        fill-rule: evenodd;
      }
    </style>
  </defs>
  <path id="vinyl" class="cls-1" d="M1191.58,2610.12a84.969,84.969,0,1,0,47.3,110.47A84.968,84.968,0,0,0,1191.58,2610.12Zm-59.22,147.9a74.349,74.349,0,1,1,96.66-41.39A74.431,74.431,0,0,1,1132.36,2758.02Zm31.59-78.88a10.622,10.622,0,1,0,5.91,13.81A10.626,10.626,0,0,0,1163.95,2679.14Zm-5.93,14.79a5.311,5.311,0,1,1,6.91-2.96A5.326,5.326,0,0,1,1158.02,2693.93Zm13.82-34.51a31.859,31.859,0,1,0,17.74,41.42A31.864,31.864,0,0,0,1171.84,2659.42Zm-19.73,49.29a21.24,21.24,0,1,1,27.61-11.81A21.26,21.26,0,0,1,1152.11,2708.71Zm47.33-3.92a2.655,2.655,0,1,0-4.93-1.97l-0.01-.01a37.021,37.021,0,0,1-19.88,20.36,2.656,2.656,0,0,0,2.1,4.88c0.05-.02.07-0.06,0.11-0.07a42.322,42.322,0,0,0,22.6-23.19h0.01Zm18.24,4.44a2.673,2.673,0,0,0-3.46,1.48,58.2,58.2,0,0,1-31.24,31.99,2.656,2.656,0,0,0,2.1,4.88c0.06-.03.11-0.09,0.17-0.12a63.521,63.521,0,0,0,33.91-34.77A2.669,2.669,0,0,0,1217.68,2709.23Zm-9.87-3.94a2.649,2.649,0,0,0-3.45,1.47,47.572,47.572,0,0,1-25.56,26.17h0.01a2.659,2.659,0,1,0,2.09,4.89,1.7,1.7,0,0,1,.14-0.1,52.913,52.913,0,0,0,28.25-28.98A2.65,2.65,0,0,0,1207.81,2705.29Zm-61.04-53.95a2.645,2.645,0,0,0-3.49-1.39,0.413,0.413,0,0,0-.11.07,42.372,42.372,0,0,0-22.61,23.19h0a2.655,2.655,0,0,0,4.93,1.97h0.01a37.018,37.018,0,0,1,19.87-20.35A2.666,2.666,0,0,0,1146.77,2651.34Zm-8.36-19.53a2.653,2.653,0,0,0-3.49-1.39,1.629,1.629,0,0,0-.17.11,63.536,63.536,0,0,0-33.9,34.77,2.656,2.656,0,1,0,4.93,1.98,58.2,58.2,0,0,1,31.23-31.98A2.67,2.67,0,0,0,1138.41,2631.81Zm2.78,13.25a2.654,2.654,0,1,0-2.09-4.88c-0.05.02-.08,0.07-0.14,0.09a52.964,52.964,0,0,0-28.25,28.99,2.656,2.656,0,0,0,4.93,1.98,47.555,47.555,0,0,1,25.55-26.17v-0.01Z" transform="translate(-1075 -2604)"/>
</svg>
